<svg width="78" height="24" viewBox="0 0 78 24" fill="none" xmlns="http://www.w3.org/2000/svg">
<path d="M15.6784 12.236V11.445H17.8063V9.41739H18.6418V11.445H20.7697V12.236H18.6418V14.2747H17.8063V12.236H15.6784ZM25.2444 15.0768V7.27838H29.9903V8.04708H26.1802V10.7877H29.4222V11.5453H26.1802V15.0768H25.2444ZM33.4183 15.2105C32.8984 15.2105 32.4305 15.0917 32.0146 14.854C31.5986 14.6164 31.2681 14.2821 31.023 13.8514C30.7854 13.4132 30.6665 12.9007 30.6665 12.314C30.6665 11.7272 30.7891 11.2185 31.0342 10.7877C31.2793 10.3495 31.6098 10.0116 32.0257 9.77389C32.449 9.53622 32.9207 9.41739 33.4406 9.41739C33.9605 9.41739 34.4284 9.53622 34.8443 9.77389C35.2602 10.0116 35.587 10.3495 35.8247 10.7877C36.0698 11.2185 36.1923 11.7272 36.1923 12.314C36.1923 12.9007 36.0698 13.4132 35.8247 13.8514C35.5796 14.2821 35.2453 14.6164 34.822 14.854C34.4061 15.0917 33.9382 15.2105 33.4183 15.2105ZM33.4183 14.4084C33.7376 14.4084 34.0347 14.3304 34.3095 14.1744C34.5843 14.0185 34.8071 13.7845 34.978 13.4726C35.1488 13.1606 35.2342 12.7744 35.2342 12.314C35.2342 11.8535 35.1488 11.4673 34.978 11.1553C34.8146 10.8434 34.5955 10.6094 34.3207 10.4535C34.0459 10.2975 33.7525 10.2195 33.4406 10.2195C33.1212 10.2195 32.8241 10.2975 32.5493 10.4535C32.2745 10.6094 32.0517 10.8434 31.8809 11.1553C31.71 11.4673 31.6246 11.8535 31.6246 12.314C31.6246 12.7744 31.71 13.1606 31.8809 13.4726C32.0517 13.7845 32.2708 14.0185 32.5382 14.1744C32.813 14.3304 33.1063 14.4084 33.4183 14.4084ZM37.4935 15.0768V7.05556H38.4293V15.0768H37.4935ZM39.9632 15.0768V7.05556H40.899V15.0768H39.9632ZM44.9506 15.2105C44.4307 15.2105 43.9628 15.0917 43.5469 14.854C43.131 14.6164 42.8005 14.2821 42.5554 13.8514C42.3177 13.4132 42.1989 12.9007 42.1989 12.314C42.1989 11.7272 42.3214 11.2185 42.5665 10.7877C42.8116 10.3495 43.1421 10.0116 43.558 9.77389C43.9814 9.53622 44.453 9.41739 44.9729 9.41739C45.4928 9.41739 45.9607 9.53622 46.3766 9.77389C46.7925 10.0116 47.1193 10.3495 47.357 10.7877C47.6021 11.2185 47.7246 11.7272 47.7246 12.314C47.7246 12.9007 47.6021 13.4132 47.357 13.8514C47.1119 14.2821 46.7777 14.6164 46.3543 14.854C45.9384 15.0917 45.4705 15.2105 44.9506 15.2105ZM44.9506 14.4084C45.27 14.4084 45.5671 14.3304 45.8419 14.1744C46.1167 14.0185 46.3395 13.7845 46.5103 13.4726C46.6811 13.1606 46.7665 12.7744 46.7665 12.314C46.7665 11.8535 46.6811 11.4673 46.5103 11.1553C46.3469 10.8434 46.1278 10.6094 45.853 10.4535C45.5782 10.2975 45.2848 10.2195 44.9729 10.2195C44.6535 10.2195 44.3564 10.2975 44.0816 10.4535C43.8068 10.6094 43.584 10.8434 43.4132 11.1553C43.2424 11.4673 43.157 11.8535 43.157 12.314C43.157 12.7744 43.2424 13.1606 43.4132 13.4726C43.584 13.7845 43.8031 14.0185 44.0705 14.1744C44.3453 14.3304 44.6387 14.4084 44.9506 14.4084ZM49.9332 15.0768L48.3178 9.55107H49.2536L50.4234 13.8848L51.7157 9.55107H52.774L54.0775 13.8848L55.2361 9.55107H56.1831L54.5677 15.0768H53.6096L52.2504 10.5203L50.8913 15.0768H49.9332Z" fill="#343333"/>
<rect x="3.07644" y="0.253197" width="71.4015" height="22.7877" rx="11.3939" stroke="#343333" stroke-width="0.506394"/>
</svg>
